<svg width="945" height="281" viewBox="0 0 945 281" fill="none" xmlns="http://www.w3.org/2000/svg">
<path d="M90.9 14.5H62.55C62.25 14.5 62.25 15.85 62.7 15.85C74.4 15.85 72.6 22.3 66.6 33.4C66.45 33.55 66.45 33.55 66.45 33.55L48 65.5L27.15 27.25C22.35 17.5 24.45 15.85 31.95 15.85C32.4 15.85 32.55 14.5 31.95 14.5H1.2C0.75 14.5 0.75 15.85 1.2 15.85C7.95 15.85 9.75 16.3 17.1 29.5C17.85 30.85 18.75 32.35 19.65 34L38.4 67.75V102.85C38.1 109.75 36.9 111.1 29.7 111.1C29.4 111.1 29.4 112 29.7 112C33.9 112 42 112 44.1 112C46.35 112 53.7 112 57.9 112C58.2 112 58.2 111.1 57.9 111.1C51.15 111.1 49.35 109.9 48.9 104.05V67.15L67.65 34.6L69.6 31.3C78.9 15.55 82.8 15.85 91.05 15.85C91.35 15.85 91.35 14.5 90.9 14.5ZM114.811 39.85C93.6605 39.85 78.9605 54.85 78.9605 76.45C78.9605 98.5 92.9105 112.75 114.811 112.75C139.561 112.75 150.661 94.45 150.661 76.3C150.661 54.85 135.961 39.85 114.811 39.85ZM114.661 111.7C98.1605 111.7 89.3105 93.4 89.3105 76.75C89.3105 59.8 99.3605 40.75 115.261 40.75C131.311 40.75 140.011 59.35 140.011 76.3C140.011 93.25 131.011 111.7 114.661 111.7ZM235.335 111.1C227.535 111.1 226.485 109.45 226.485 99.85V40.75H224.835H224.685C224.385 40.9 224.085 40.9 223.785 41.05C221.535 42.25 218.985 43.45 216.285 44.35H216.135C213.435 45.4 210.585 46.15 207.285 46.75C206.835 46.9 206.985 47.95 207.285 47.95C213.735 46.75 215.685 46.75 216.135 53.65V82.3C211.785 100 202.335 108.1 190.185 108.1C174.135 108.1 169.185 96.4 169.185 81.55V58.15V40.75H167.685C167.535 40.75 167.535 40.75 167.385 40.75C167.085 40.75 166.935 40.9 166.635 41.05C164.235 42.25 161.835 43.45 158.985 44.35C156.285 45.4 153.435 46.15 150.135 46.75C149.535 46.9 149.685 47.8 150.135 47.95C156.585 46.75 158.535 46.75 158.985 53.8V84.4C158.985 102.1 168.285 113.5 186.885 113.5C201.135 113.5 212.085 104.5 216.285 83.8V100.45C216.285 109.45 215.535 111.1 207.735 111.1C207.435 111.1 207.435 112 207.735 112C211.785 112 219.735 112 221.835 112C223.935 112 231.285 112 235.335 112C235.635 112 235.635 111.1 235.335 111.1ZM255.357 70.45V40.75H253.857C253.707 40.75 253.707 40.75 253.557 40.75C253.257 40.75 253.107 40.9 252.807 41.05C250.407 42.25 248.007 43.3 245.157 44.35C242.457 45.25 239.607 46.15 236.307 46.75C235.707 46.9 235.857 47.8 236.307 47.8C243.507 46.6 245.157 46.75 245.157 56.5C245.157 57.1 245.157 57.55 245.157 58V102.55C245.007 109.75 243.807 111.1 236.757 111.1C236.457 111.1 236.457 112 236.757 112C240.807 112 248.757 112 250.857 112C252.957 112 260.307 112 264.357 112C264.657 112 264.657 111.1 264.357 111.1C256.407 111.1 255.507 109.45 255.507 99.85V71.8C260.007 54.25 269.157 48.55 281.157 48.55C282.357 48.55 283.557 48.7 284.757 48.85V40.75C270.657 40.75 259.557 49.75 255.357 70.45ZM392.98 66.85C392.98 66.55 392.83 66.25 392.83 65.8C390.58 51.25 381.73 41.8 370.48 39.7C369.13 39.4 367.93 39.25 366.58 39.25C366.43 39.25 366.28 39.25 365.98 39.25H365.83C365.08 39.25 364.18 39.25 363.43 39.4C360.73 39.55 358.18 40.3 355.93 41.2C353.53 42.25 351.28 43.6 349.33 45.25C348.58 45.85 347.98 46.45 347.38 47.2C346.93 47.65 346.48 48.1 346.03 48.55C342.13 53.2 339.28 59.65 337.48 67.9V0.399997V0.0999923H335.53C335.08 0.0999923 334.78 0.24999 334.48 0.399997C332.53 1.44999 330.43 2.35 328.18 3.25C327.73 3.39999 327.43 3.54999 326.98 3.69999C326.98 3.69999 326.98 3.69999 326.83 3.69999C324.28 4.74999 321.28 5.49999 317.98 6.1C317.38 6.24999 317.53 7.3 317.98 7.3C325.63 5.95 326.83 6.24999 326.83 17.5H326.98V100C326.98 100.9 326.98 101.95 326.83 103.3C326.83 105.85 326.83 109 326.83 112H327.73L337.48 108.4C341.53 110.8 346.93 112.6 353.08 112.6C360.28 112.6 367.63 110.35 373.93 106.45C385.18 99.7 393.28 87.25 393.28 72.4C393.28 70.6 393.28 68.65 392.98 66.85ZM382.78 81.25C382.18 93.7 377.98 102.25 370.78 106.45C367.48 108.55 363.58 109.45 358.93 109.45C355.18 109.45 351.43 108.25 348.13 106.45C343.93 104.2 340.33 101.05 337.48 98.2V70C338.08 67.75 338.68 65.65 339.43 63.85C339.43 63.7 339.43 63.7 339.43 63.7C339.88 62.65 340.18 61.75 340.63 61C342.88 56.8 345.73 53.35 349.03 50.8C351.58 48.85 354.43 47.5 357.43 46.9C358.63 46.6 359.98 46.45 361.33 46.45C362.98 46.45 364.63 46.75 366.13 47.2C367.63 47.65 369.13 48.25 370.48 49.15C377.68 53.8 381.88 64.15 382.63 76.6C382.78 78.1 382.78 79.6 382.78 81.1V81.25ZM464.305 87.4C457.705 98.35 449.005 104.8 436.405 104.8C418.705 104.8 404.755 91.3 404.755 73.9C404.755 71.95 404.905 70 405.055 68.2L405.205 67.3C405.205 66.85 405.205 66.55 405.355 66.1C405.355 65.5 405.655 64.15 405.955 62.8H457.555V62.35C457.555 61.9 457.555 61.6 457.555 61.45V61.3V61.15C457.105 55.75 455.605 51.7 453.505 48.7C453.505 48.7 453.505 48.7 453.505 48.55C452.605 47.2 451.405 46 450.055 44.8C450.055 44.8 450.055 44.8 449.905 44.8C449.305 44.2 448.555 43.6 447.655 43.15C447.505 43 447.205 42.85 447.055 42.85C446.755 42.7 446.605 42.55 446.455 42.4C443.305 40.9 440.155 40.15 437.905 39.85C435.055 39.4 430.405 39.85 430.405 39.85C413.305 41.65 396.955 59.2 396.955 79.15C396.955 91 401.605 100.9 409.855 106.9C415.255 110.8 422.005 112.9 429.805 112.9C436.855 112.9 443.155 110.65 448.705 106.9C449.005 106.75 449.305 106.45 449.605 106.3C456.055 101.8 461.305 95.2 465.355 88.15L464.305 87.4ZM407.155 59.05C410.905 48.25 419.305 42.85 429.655 42.85C432.055 42.85 434.305 43.3 436.255 44.05C436.555 44.2 436.855 44.35 437.155 44.5C437.305 44.65 437.455 44.65 437.605 44.65C439.555 45.85 441.655 47.5 443.305 50.35V50.5C444.955 53.2 446.005 56.95 446.155 61.9H406.255C406.405 61 406.705 60.1 407.005 59.2C407.005 59.05 407.155 59.05 407.155 59.05ZM508.543 74.95L490.543 65.2C474.943 56.5 474.643 41.2 494.143 40C513.643 38.95 516.643 54.85 517.993 65.05C517.993 65.05 518.143 65.2 518.593 65.2C519.043 65.2 518.893 65.05 518.893 65.05V46.6C518.893 46.6 514.393 38.95 493.843 38.95C475.693 38.95 471.043 48.4 471.043 48.4C465.193 58.75 468.793 66.55 485.743 76.75L503.743 86.35C517.243 94.15 522.043 111.85 500.143 112.6C472.393 113.8 471.493 94.9 470.293 83.2C470.293 83.2 470.143 83.05 469.843 83.05C469.243 83.05 469.243 83.35 469.243 83.35V104.65C469.243 104.65 478.393 113.8 499.993 113.8C515.593 113.8 521.293 106.45 521.293 106.45C529.693 95.95 524.743 83.65 508.543 74.95ZM568.191 104.5C565.341 107.95 562.041 109.75 558.741 109.75C552.891 109.75 549.591 104.35 549.591 94.15V41.65H567.441V40.9H549.591V23.95H547.641C547.341 23.95 547.041 24.1 546.741 24.25C544.341 25.45 541.791 26.65 539.091 27.55C536.391 28.6 533.391 29.35 530.091 29.95C529.641 30.1 529.791 31.15 530.091 31.15C537.591 29.8 539.091 30.1 539.091 40.9L523.491 40.75V40.9V41.65H539.091V94.6C539.091 108.1 543.141 114.1 552.591 114.1C558.891 114.1 564.441 110.35 568.791 105.25L568.191 104.5ZM72.6 217.4C66 228.35 57.3 234.8 44.7 234.8C27 234.8 13.05 221.3 13.05 203.9C13.05 201.95 13.2 200 13.35 198.2L13.5 197.3C13.5 196.85 13.5 196.55 13.65 196.1C13.65 195.5 13.95 194.15 14.25 192.8H65.85V192.35C65.85 191.9 65.85 191.6 65.85 191.45V191.3V191.15C65.4 185.75 63.9 181.7 61.8 178.7C61.8 178.7 61.8 178.7 61.8 178.55C60.9 177.2 59.7 176 58.35 174.8C58.35 174.8 58.35 174.8 58.2 174.8C57.6 174.2 56.85 173.6 55.95 173.15C55.8 173 55.5 172.85 55.35 172.85C55.05 172.7 54.9 172.55 54.75 172.4C51.6 170.9 48.45 170.15 46.2 169.85C43.35 169.4 38.7 169.85 38.7 169.85C21.6 171.65 5.25 189.2 5.25 209.15C5.25 221 9.9 230.9 18.15 236.9C23.55 240.8 30.3 242.9 38.1 242.9C45.15 242.9 51.45 240.65 57 236.9C57.3 236.75 57.6 236.45 57.9 236.3C64.35 231.8 69.6 225.2 73.65 218.15L72.6 217.4ZM15.45 189.05C19.2 178.25 27.6 172.85 37.95 172.85C40.35 172.85 42.6 173.3 44.55 174.05C44.85 174.2 45.15 174.35 45.45 174.5C45.6 174.65 45.75 174.65 45.9 174.65C47.85 175.85 49.95 177.5 51.6 180.35V180.5C53.25 183.2 54.3 186.95 54.45 191.9H14.55C14.7 191 15 190.1 15.3 189.2C15.3 189.05 15.45 189.05 15.45 189.05ZM144.143 170.75H115.793C115.493 170.75 115.493 172.1 115.943 172.1C124.643 172.1 126.593 173.75 116.693 189.05L108.143 201.2L97.7926 186.2C88.4926 172.85 90.4426 172.1 98.6926 172.1C99.1426 172.1 99.2926 170.75 98.6926 170.75H67.7926C67.3426 170.75 67.3426 172.1 67.7926 172.1C73.3426 172.1 76.3426 173.3 81.1426 179.75L101.843 210.35L89.2426 228.5C80.8426 239.45 74.3926 240.8 66.7426 240.8C66.4426 240.8 66.4426 242.15 66.8926 242.15H95.2426C95.5426 242.15 95.5426 240.8 94.9426 240.8C86.9926 240.8 84.7426 239.45 92.5426 226.85L102.893 211.7L116.393 231.65C121.643 240.2 119.093 240.8 112.043 240.8C111.593 240.8 111.593 242 112.043 242H143.393C143.843 242 143.843 240.8 143.393 240.8C137.543 240.8 134.843 239.3 129.143 231.5L109.193 202.55L117.893 189.95C117.893 189.95 117.893 189.95 117.893 189.8L121.193 185.3C129.743 173.45 136.493 172.1 144.293 172.1C144.593 172.1 144.593 170.75 144.143 170.75ZM219.136 197.3C219.136 196.85 218.986 196.55 218.986 196.25C216.736 181.55 207.886 172.1 196.636 170C195.436 169.7 194.086 169.55 192.886 169.55C192.586 169.55 192.436 169.55 192.136 169.55H191.986C191.236 169.55 190.336 169.55 189.586 169.7C186.886 170 184.336 170.6 182.086 171.65C179.686 172.55 177.436 173.9 175.486 175.7C174.736 176.15 174.136 176.9 173.536 177.5C173.086 177.95 172.636 178.4 172.186 179C168.436 183.5 165.436 189.95 163.636 198.35V171.05H161.536H161.386H161.236C160.936 171.05 160.786 171.05 160.486 171.2C158.086 172.4 155.686 173.6 152.986 174.65H152.836C150.136 175.55 147.286 176.45 143.986 176.9C143.386 177.05 143.536 178.1 143.986 178.1C151.186 176.9 152.836 177.05 152.836 186.8C152.836 187.25 152.836 187.85 152.836 188.3H152.986V267.8C152.986 277.4 152.386 279.05 144.436 279.05C144.136 279.05 144.136 280.1 144.436 280.1C146.536 280.1 149.986 280.1 152.986 280.1C155.686 280.1 169.786 280.1 172.036 280.1C172.336 280.1 172.336 279.05 172.036 279.05C165.286 279.05 163.936 277.85 163.636 271.4V238.7C167.686 241.1 173.086 242.9 179.236 242.9C186.586 242.9 193.786 240.8 200.086 236.9C211.336 230 219.586 217.7 219.586 202.85C219.586 200.9 219.436 199.1 219.136 197.3ZM208.936 211.55C208.336 224.15 204.136 232.7 196.936 236.9C193.636 238.85 189.736 239.75 185.236 239.75C181.336 239.75 177.586 238.7 174.286 236.9C170.086 234.65 166.486 231.5 163.636 228.65V200.3C164.236 198.05 164.836 196.1 165.586 194.15C165.586 194.15 165.586 194 165.736 194C166.036 193.1 166.486 192.2 166.786 191.3C169.036 187.1 171.886 183.65 175.186 181.25C177.736 179.3 180.586 177.95 183.586 177.2C184.786 177.05 186.136 176.9 187.486 176.9C189.136 176.9 190.786 177.05 192.286 177.5C193.786 177.95 195.286 178.7 196.636 179.45C196.636 179.6 196.636 179.6 196.636 179.6C203.836 184.25 208.036 194.6 208.786 206.9C208.786 206.9 208.786 206.9 208.786 207.05C208.936 208.4 208.936 209.9 208.936 211.55ZM290.645 217.4C284.045 228.35 275.345 234.8 262.745 234.8C245.045 234.8 231.095 221.3 231.095 203.9C231.095 201.95 231.245 200 231.395 198.2L231.545 197.3C231.545 196.85 231.545 196.55 231.695 196.1C231.695 195.5 231.995 194.15 232.295 192.8H283.895V192.35C283.895 191.9 283.895 191.6 283.895 191.45V191.3V191.15C283.445 185.75 281.945 181.7 279.845 178.7C279.845 178.7 279.845 178.7 279.845 178.55C278.945 177.2 277.745 176 276.395 174.8C276.395 174.8 276.395 174.8 276.245 174.8C275.645 174.2 274.895 173.6 273.995 173.15C273.845 173 273.545 172.85 273.395 172.85C273.095 172.7 272.945 172.55 272.795 172.4C269.645 170.9 266.495 170.15 264.245 169.85C261.395 169.4 256.745 169.85 256.745 169.85C239.645 171.65 223.295 189.2 223.295 209.15C223.295 221 227.945 230.9 236.195 236.9C241.595 240.8 248.345 242.9 256.145 242.9C263.195 242.9 269.495 240.65 275.045 236.9C275.345 236.75 275.645 236.45 275.945 236.3C282.395 231.8 287.645 225.2 291.695 218.15L290.645 217.4ZM233.495 189.05C237.245 178.25 245.645 172.85 255.995 172.85C258.395 172.85 260.645 173.3 262.595 174.05C262.895 174.2 263.195 174.35 263.495 174.5C263.645 174.65 263.795 174.65 263.945 174.65C265.895 175.85 267.995 177.5 269.645 180.35V180.5C271.295 183.2 272.345 186.95 272.495 191.9H232.595C232.745 191 233.045 190.1 233.345 189.2C233.345 189.05 233.495 189.05 233.495 189.05ZM308.996 200.45V170.75H307.496C307.346 170.75 307.346 170.75 307.196 170.75C306.896 170.75 306.746 170.9 306.446 171.05C304.046 172.25 301.646 173.3 298.796 174.35C296.096 175.25 293.246 176.15 289.946 176.75C289.346 176.9 289.496 177.8 289.946 177.8C297.146 176.6 298.796 176.75 298.796 186.5C298.796 187.1 298.796 187.55 298.796 188V232.55C298.646 239.75 297.446 241.1 290.396 241.1C290.096 241.1 290.096 242 290.396 242C294.446 242 302.396 242 304.496 242C306.596 242 313.946 242 317.996 242C318.296 242 318.296 241.1 317.996 241.1C310.046 241.1 309.146 239.45 309.146 229.85V201.8C313.646 184.25 322.796 178.55 334.796 178.55C335.996 178.55 337.196 178.7 338.396 178.85V170.75C324.296 170.75 313.196 179.75 308.996 200.45ZM352.558 157.7C356.608 157.7 359.908 154.4 359.908 150.35C359.908 146.3 356.608 142.85 352.558 142.85C348.358 142.85 345.208 146.3 345.208 150.35C345.208 154.4 348.358 157.7 352.558 157.7ZM366.208 241.25C359.758 241.25 358.258 240.05 357.958 233.9V171.05H356.008C355.558 171.05 355.258 171.05 354.958 171.2C352.558 172.4 350.158 173.6 347.308 174.65C347.308 174.65 347.308 174.65 347.158 174.65C344.608 175.55 341.608 176.45 338.458 176.9C337.858 177.05 338.008 178.1 338.458 178.1C344.608 177.05 346.708 177.05 347.158 183.2V229.85C347.158 239.45 346.558 241.25 338.608 241.25C338.458 241.25 338.308 242.15 338.608 242.15C342.658 242.15 350.758 242.15 352.858 242.15C354.958 242.15 362.158 242.15 366.208 242.15C366.508 242.15 366.508 241.25 366.208 241.25ZM433.397 217.4C426.797 228.35 418.097 234.8 405.497 234.8C387.797 234.8 373.847 221.3 373.847 203.9C373.847 201.95 373.997 200 374.147 198.2L374.297 197.3C374.297 196.85 374.297 196.55 374.447 196.1C374.447 195.5 374.747 194.15 375.047 192.8H426.647V192.35C426.647 191.9 426.647 191.6 426.647 191.45V191.3V191.15C426.197 185.75 424.697 181.7 422.597 178.7C422.597 178.7 422.597 178.7 422.597 178.55C421.697 177.2 420.497 176 419.147 174.8C419.147 174.8 419.147 174.8 418.997 174.8C418.397 174.2 417.647 173.6 416.747 173.15C416.597 173 416.297 172.85 416.147 172.85C415.847 172.7 415.697 172.55 415.547 172.4C412.397 170.9 409.247 170.15 406.997 169.85C404.147 169.4 399.497 169.85 399.497 169.85C382.397 171.65 366.047 189.2 366.047 209.15C366.047 221 370.697 230.9 378.947 236.9C384.347 240.8 391.097 242.9 398.897 242.9C405.947 242.9 412.247 240.65 417.797 236.9C418.097 236.75 418.397 236.45 418.697 236.3C425.147 231.8 430.397 225.2 434.447 218.15L433.397 217.4ZM376.247 189.05C379.997 178.25 388.397 172.85 398.747 172.85C401.147 172.85 403.397 173.3 405.347 174.05C405.647 174.2 405.947 174.35 406.247 174.5C406.397 174.65 406.547 174.65 406.697 174.65C408.647 175.85 410.747 177.5 412.397 180.35V180.5C414.047 183.2 415.097 186.95 415.247 191.9H375.347C375.497 191 375.797 190.1 376.097 189.2C376.097 189.05 376.247 189.05 376.247 189.05ZM517.748 241.1C510.098 241.1 509.048 239.45 509.048 230.15V198.65C509.048 180.95 499.748 169.7 480.998 169.7C466.898 169.7 455.798 178.7 451.598 199.25V171.05H450.098C449.948 171.05 449.948 171.05 449.798 171.05C449.498 171.05 449.348 171.2 449.048 171.35C446.648 172.55 444.248 173.6 441.548 174.65H441.398C438.698 175.55 435.848 176.45 432.548 177.05C431.948 177.2 432.098 178.1 432.548 178.1C439.748 176.9 441.398 177.05 441.398 186.8C441.398 187.4 441.398 187.85 441.398 188.45H441.548V229.7C441.548 239.3 440.948 241.1 432.998 241.1C432.698 241.1 432.698 242 432.998 242C435.098 242 438.548 242 441.548 242H451.748C454.748 242 458.198 242 460.598 242C460.898 242 460.898 241.1 460.598 241.1C452.798 241.1 451.748 239.45 451.748 229.85V200.75C456.248 183.05 465.248 175.1 477.248 175.1C493.298 175.1 498.698 186.8 498.698 201.5V232.4C498.548 239.75 497.348 241.1 490.148 241.1C489.998 241.1 489.848 242 490.148 242C494.198 242 502.298 242 504.398 242C506.498 242 513.698 242 517.748 242C518.198 242 518.048 241.1 517.748 241.1ZM584.62 217.4C578.02 228.35 569.32 234.8 556.87 234.8C539.02 234.8 525.07 221.3 525.07 203.9C525.07 201.95 525.22 200 525.37 198.2L525.52 197.3C525.52 196.85 525.52 196.55 525.67 196.25C525.67 196.1 525.67 196.1 525.67 196.1C525.67 195.35 526.12 193.55 526.57 192.05C526.72 191 527.02 190.1 527.32 189.2L527.47 189.05C531.22 178.25 539.62 172.85 549.97 172.85C552.37 172.85 554.62 173.3 556.57 174.05C556.87 174.2 557.17 174.35 557.47 174.5C557.62 174.65 557.77 174.65 557.92 174.65C559.87 175.85 561.97 177.65 563.62 180.35V180.5C564.37 181.7 564.97 183.2 565.57 184.85H566.47L572.17 176.6C571.72 176 570.97 175.4 570.37 174.8C570.37 174.8 570.37 174.8 570.22 174.8C569.62 174.2 568.87 173.6 567.97 173.15C567.82 173 567.52 172.85 567.37 172.85C567.07 172.7 566.92 172.55 566.77 172.4C563.62 170.9 560.47 170.15 558.22 169.85C555.37 169.4 550.72 169.85 550.72 169.85C533.62 171.65 517.27 189.2 517.27 209.15C517.27 221 521.92 230.9 530.17 236.9C535.57 240.8 542.32 242.9 550.12 242.9C557.17 242.9 563.47 240.65 569.02 236.9C569.32 236.75 569.62 236.45 569.92 236.3C576.37 231.8 581.62 225.2 585.67 218.15L584.62 217.4ZM654.225 217.4C647.625 228.35 638.925 234.8 626.325 234.8C608.625 234.8 594.675 221.3 594.675 203.9C594.675 201.95 594.825 200 594.975 198.2L595.125 197.3C595.125 196.85 595.125 196.55 595.275 196.1C595.275 195.5 595.575 194.15 595.875 192.8H647.475V192.35C647.475 191.9 647.475 191.6 647.475 191.45V191.3V191.15C647.025 185.75 645.525 181.7 643.425 178.7C643.425 178.7 643.425 178.7 643.425 178.55C642.525 177.2 641.325 176 639.975 174.8C639.975 174.8 639.975 174.8 639.825 174.8C639.225 174.2 638.475 173.6 637.575 173.15C637.425 173 637.125 172.85 636.975 172.85C636.675 172.7 636.525 172.55 636.375 172.4C633.225 170.9 630.075 170.15 627.825 169.85C624.975 169.4 620.325 169.85 620.325 169.85C603.225 171.65 586.875 189.2 586.875 209.15C586.875 221 591.525 230.9 599.775 236.9C605.175 240.8 611.925 242.9 619.725 242.9C626.775 242.9 633.075 240.65 638.625 236.9C638.925 236.75 639.225 236.45 639.525 236.3C645.975 231.8 651.225 225.2 655.275 218.15L654.225 217.4ZM597.075 189.05C600.825 178.25 609.225 172.85 619.575 172.85C621.975 172.85 624.225 173.3 626.175 174.05C626.475 174.2 626.775 174.35 627.075 174.5C627.225 174.65 627.375 174.65 627.525 174.65C629.475 175.85 631.575 177.5 633.225 180.35V180.5C634.875 183.2 635.925 186.95 636.075 191.9H596.175C596.325 191 596.625 190.1 596.925 189.2C596.925 189.05 597.075 189.05 597.075 189.05ZM762.674 217.4C756.074 228.35 747.374 234.8 734.774 234.8C717.074 234.8 703.124 221.3 703.124 203.9C703.124 201.95 703.274 200 703.424 198.2L703.574 197.3C703.574 196.85 703.574 196.55 703.724 196.1C703.724 195.5 704.024 194.15 704.324 192.8H755.924V192.35C755.924 191.9 755.924 191.6 755.924 191.45V191.3V191.15C755.474 185.75 753.974 181.7 751.874 178.7C751.874 178.7 751.874 178.7 751.874 178.55C750.974 177.2 749.774 176 748.424 174.8C748.424 174.8 748.424 174.8 748.274 174.8C747.674 174.2 746.924 173.6 746.024 173.15C745.874 173 745.574 172.85 745.424 172.85C745.124 172.7 744.974 172.55 744.824 172.4C741.674 170.9 738.524 170.15 736.274 169.85C733.424 169.4 728.774 169.85 728.774 169.85C711.674 171.65 695.324 189.2 695.324 209.15C695.324 221 699.974 230.9 708.224 236.9C713.624 240.8 720.374 242.9 728.174 242.9C735.224 242.9 741.524 240.65 747.074 236.9C747.374 236.75 747.674 236.45 747.974 236.3C754.424 231.8 759.674 225.2 763.724 218.15L762.674 217.4ZM705.524 189.05C709.274 178.25 717.674 172.85 728.024 172.85C730.424 172.85 732.674 173.3 734.624 174.05C734.924 174.2 735.224 174.35 735.524 174.5C735.674 174.65 735.824 174.65 735.974 174.65C737.924 175.85 740.024 177.5 741.674 180.35V180.5C743.324 183.2 744.374 186.95 744.524 191.9H704.624C704.774 191 705.074 190.1 705.374 189.2C705.374 189.05 705.524 189.05 705.524 189.05ZM836.306 170.9H808.106C807.656 170.9 807.806 172.25 808.256 172.25C816.806 172.25 821.156 176.45 816.656 193.1L809.606 216.95L802.856 239.6L782.756 186.5C777.806 172.55 779.306 172.1 787.406 172.1C787.856 172.1 788.006 170.75 787.406 170.75H756.656C756.206 170.75 756.206 172.1 756.656 172.1C763.256 172.1 765.956 173.6 770.756 185.6L791.906 242.15H803.156L816.806 196.85L818.006 193.25C823.106 175.7 827.756 172.25 836.456 172.25C836.756 172.25 836.906 170.9 836.306 170.9ZM897.198 217.4C890.598 228.35 881.898 234.8 869.298 234.8C851.598 234.8 837.648 221.3 837.648 203.9C837.648 201.95 837.798 200 837.948 198.2L838.098 197.3C838.098 196.85 838.098 196.55 838.248 196.1C838.248 195.5 838.548 194.15 838.848 192.8H890.448V192.35C890.448 191.9 890.448 191.6 890.448 191.45V191.3V191.15C889.998 185.75 888.498 181.7 886.398 178.7C886.398 178.7 886.398 178.7 886.398 178.55C885.498 177.2 884.298 176 882.948 174.8C882.948 174.8 882.948 174.8 882.798 174.8C882.198 174.2 881.448 173.6 880.548 173.15C880.398 173 880.098 172.85 879.948 172.85C879.648 172.7 879.498 172.55 879.348 172.4C876.198 170.9 873.048 170.15 870.798 169.85C867.948 169.4 863.298 169.85 863.298 169.85C846.198 171.65 829.848 189.2 829.848 209.15C829.848 221 834.498 230.9 842.748 236.9C848.148 240.8 854.898 242.9 862.698 242.9C869.748 242.9 876.048 240.65 881.598 236.9C881.898 236.75 882.198 236.45 882.498 236.3C888.948 231.8 894.198 225.2 898.248 218.15L897.198 217.4ZM840.048 189.05C843.798 178.25 852.198 172.85 862.548 172.85C864.948 172.85 867.198 173.3 869.148 174.05C869.448 174.2 869.748 174.35 870.048 174.5C870.198 174.65 870.348 174.65 870.498 174.65C872.448 175.85 874.548 177.5 876.198 180.35V180.5C877.848 183.2 878.898 186.95 879.048 191.9H839.148C839.298 191 839.598 190.1 839.898 189.2C839.898 189.05 840.048 189.05 840.048 189.05ZM915.549 200.45V170.75H914.049C913.899 170.75 913.899 170.75 913.749 170.75C913.449 170.75 913.299 170.9 912.999 171.05C910.599 172.25 908.199 173.3 905.349 174.35C902.649 175.25 899.799 176.15 896.499 176.75C895.899 176.9 896.049 177.8 896.499 177.8C903.699 176.6 905.349 176.75 905.349 186.5C905.349 187.1 905.349 187.55 905.349 188V232.55C905.199 239.75 903.999 241.1 896.949 241.1C896.649 241.1 896.649 242 896.949 242C900.999 242 908.949 242 911.049 242C913.149 242 920.499 242 924.549 242C924.849 242 924.849 241.1 924.549 241.1C916.599 241.1 915.699 239.45 915.699 229.85V201.8C920.199 184.25 929.349 178.55 941.349 178.55C942.549 178.55 943.749 178.7 944.949 178.85V170.75C930.849 170.75 919.749 179.75 915.549 200.45Z" fill="#FEF9F3"/>
</svg>
