<svg width="180" height="38" viewBox="0 0 180 38" fill="none" xmlns="http://www.w3.org/2000/svg">
<path d="M9.3311 36.2048C6.77245 36.2048 6.52643 35.6666 6.52643 32.5354V0H5.88677C5.73915 0 5.64074 0.0489247 5.54234 0.0978524C4.75506 0.489253 3.96778 0.880657 3.03289 1.17421C2.19641 1.51669 1.21232 1.76131 0.129815 1.95702C-0.0670041 2.00594 -0.0177994 2.34842 0.129815 2.34842C2.63926 1.90809 3.03289 2.00594 3.03289 5.67534V32.5843C3.03289 32.8289 3.03289 33.2203 3.03289 33.5628C2.98369 35.7644 2.54085 36.2048 0.277429 36.2048C0.17902 36.2048 0.17902 36.4983 0.277429 36.4983C0.966295 36.4983 2.0488 36.4983 3.03289 36.4983H6.52643C7.46132 36.4983 8.54382 36.4983 9.3311 36.4983C9.42951 36.4983 9.42951 36.2048 9.3311 36.2048Z" fill="white"/>
<path d="M14.6137 9.00227C15.9422 9.00227 17.0247 7.92591 17.0247 6.60493C17.0247 5.28394 15.9422 4.15866 14.6137 4.15866C13.236 4.15866 12.2027 5.28394 12.2027 6.60493C12.2027 7.92591 13.236 9.00227 14.6137 9.00227ZM19.0913 36.2537C16.9755 36.2537 16.4835 35.8623 16.3851 33.8564V13.3566H15.7454C15.5978 13.3566 15.4994 13.3566 15.401 13.4056C14.6137 13.797 13.8264 14.1884 12.8915 14.5308C12.8915 14.5308 12.8915 14.5308 12.8423 14.5308C12.0058 14.8244 11.0217 15.1179 9.98844 15.2647C9.79162 15.3136 9.84083 15.6561 9.98844 15.6561C12.0058 15.3136 12.6947 15.3136 12.8423 17.3196V32.5354C12.8423 35.6666 12.6455 36.2537 10.0376 36.2537C9.98844 36.2537 9.93924 36.5472 10.0376 36.5472C11.3662 36.5472 14.0232 36.5472 14.7121 36.5472C15.401 36.5472 17.7628 36.5472 19.0913 36.5472C19.1897 36.5472 19.1897 36.2537 19.0913 36.2537Z" fill="white"/>
<path d="M31.1757 12.9652C24.2378 12.9652 19.4158 17.8578 19.4158 24.903C19.4158 32.095 23.9918 36.743 31.1757 36.743C39.2945 36.743 42.9356 30.7741 42.9356 24.8541C42.9356 17.8578 38.1136 12.9652 31.1757 12.9652ZM31.1265 36.4005C25.714 36.4005 22.8109 30.4316 22.8109 25.0009C22.8109 19.4723 26.1076 13.2588 31.3233 13.2588C36.5882 13.2588 39.4421 19.3255 39.4421 24.8541C39.4421 30.3827 36.4898 36.4005 31.1265 36.4005Z" fill="white"/>
<path d="M71.1872 36.2048C68.6778 36.2048 68.3333 35.6666 68.3333 32.6332V22.3589C68.3333 16.5857 65.2826 12.9163 59.132 12.9163C54.5068 12.9163 50.8657 15.8518 49.4879 22.5546V13.3566H48.9959C48.9467 13.3566 48.9467 13.3566 48.8975 13.3566C48.7991 13.3566 48.7499 13.4056 48.6514 13.4545C47.8642 13.8459 47.0769 14.1884 46.1912 14.5308H46.142C45.2563 14.8244 44.3214 15.1179 43.2389 15.3136C43.0421 15.3626 43.0913 15.6561 43.2389 15.6561C45.6007 15.2647 46.142 15.3136 46.142 18.4938C46.142 18.6895 46.142 18.8363 46.142 19.032H46.1912V32.4864C46.1912 35.6177 45.9944 36.2048 43.3865 36.2048C43.2881 36.2048 43.2881 36.4983 43.3865 36.4983C44.0754 36.4983 45.2071 36.4983 46.1912 36.4983H49.5371C50.5212 36.4983 51.6529 36.4983 52.4402 36.4983C52.5386 36.4983 52.5386 36.2048 52.4402 36.2048C49.8816 36.2048 49.5371 35.6666 49.5371 32.5354V23.0438C51.0133 17.2707 53.9656 14.6776 57.9019 14.6776C63.1668 14.6776 64.9382 18.4938 64.9382 23.2885V33.3671C64.889 35.7644 64.4954 36.2048 62.1335 36.2048C62.0843 36.2048 62.0351 36.4983 62.1335 36.4983C63.4621 36.4983 66.1191 36.4983 66.808 36.4983C67.4968 36.4983 69.8587 36.4983 71.1872 36.4983C71.3348 36.4983 71.2856 36.2048 71.1872 36.2048Z" fill="white"/>
<path d="M85.2259 24.4138L79.3214 21.2336C74.2041 18.3959 74.1057 13.4056 80.5023 13.0141C86.8989 12.6717 87.883 17.8578 88.3258 21.1847C88.3258 21.1847 88.375 21.2336 88.5227 21.2336C88.6703 21.2336 88.6211 21.1847 88.6211 21.1847V15.1669C88.6211 15.1669 87.1449 12.6717 80.4039 12.6717C74.4501 12.6717 72.9248 15.754 72.9248 15.754C71.0058 19.1298 72.1867 21.6739 77.7468 25.0009L83.6514 28.1321C88.0798 30.6762 89.6544 36.4494 82.4705 36.694C73.3676 37.0854 73.0724 30.9208 72.6787 27.1047C72.6787 27.1047 72.6295 27.0557 72.5311 27.0557C72.3343 27.0557 72.3343 27.1536 72.3343 27.1536V34.101C72.3343 34.101 75.3358 37.0854 82.4213 37.0854C87.5386 37.0854 89.4083 34.6881 89.4083 34.6881C92.1638 31.2633 90.54 27.2514 85.2259 24.4138Z" fill="white"/>
<path d="M118.992 36.2537C116.482 36.2537 116.138 35.7155 116.138 32.6821V22.4078C116.138 16.6346 113.087 12.9163 106.936 12.9163C102.311 12.9163 98.67 15.8518 97.2922 22.6035V0.0978524H96.8002C96.751 0.0978524 96.751 0.0978524 96.7018 0.0978524C96.6034 0.0978524 96.5542 0.146777 96.4558 0.146777C95.6685 0.538181 94.8812 0.929582 93.9955 1.27206H93.9463C93.0606 1.56561 92.1257 1.85917 91.0432 2.00594C90.8464 2.05487 90.8956 2.39734 91.0432 2.39734C93.4051 2.00594 93.9463 2.05486 93.9463 5.23501C93.9463 5.38179 93.9463 5.57749 93.9463 5.72427H93.9955V32.5354C93.9955 35.6666 93.7987 36.2048 91.1908 36.2048C91.0924 36.2048 91.0924 36.5472 91.1908 36.5472C91.8797 36.5472 93.0114 36.5472 93.9955 36.5472H97.3414C98.3255 36.5472 99.4572 36.5472 100.245 36.5472C100.343 36.5472 100.343 36.2048 100.245 36.2048C97.6859 36.2048 97.3414 35.6666 97.3414 32.5843V23.0928C98.8176 17.3196 101.77 14.7265 105.706 14.7265C110.971 14.7265 112.743 18.5427 112.743 23.3374V33.416C112.693 35.7644 112.3 36.2537 109.938 36.2537C109.889 36.2537 109.839 36.5472 109.938 36.5472C111.266 36.5472 113.923 36.5472 114.612 36.5472C115.301 36.5472 117.663 36.5472 118.992 36.5472C119.139 36.5472 119.09 36.2537 118.992 36.2537Z" fill="white"/>
<path d="M141.743 36.2048C139.283 36.2048 138.84 35.7155 138.84 32.9268V22.3589C138.84 16.5857 135.789 12.9163 129.688 12.9163C125.309 12.9163 121.815 15.5093 120.29 21.4293H120.536C122.11 16.7814 124.866 14.7265 128.408 14.7265C133.181 14.7265 135.1 17.8088 135.396 21.9675C134.51 22.9949 132.246 23.5331 129.737 24.1202C128.408 24.4138 126.932 24.7562 125.653 25.1476C124.029 25.6858 122.652 26.2729 121.569 27.2025C120.339 28.2299 119.699 29.502 119.699 31.3612C119.699 34.1988 121.323 36.743 125.85 36.743C130.327 36.743 133.919 33.2692 135.445 28.2299V33.2693C135.445 35.7155 135.051 36.2048 132.689 36.2048C132.591 36.2048 132.591 36.5472 132.689 36.5472C134.018 36.5472 136.626 36.5472 137.315 36.5472C138.003 36.5472 140.414 36.5472 141.743 36.5472C141.841 36.5472 141.841 36.2048 141.743 36.2048ZM127.326 34.1988C123.931 34.1988 122.258 32.5843 122.258 30.2359C122.258 26.5665 124.817 25.7347 129.491 24.6584C132.099 24.1202 134.411 23.582 135.445 22.5057C135.445 22.7503 135.445 23.0438 135.445 23.2885V27.1536C134.165 31.9483 130.869 34.1988 127.326 34.1988Z" fill="white"/>
<path d="M148.475 22.946V13.2588H147.983C147.934 13.2588 147.934 13.2588 147.885 13.2588C147.786 13.2588 147.737 13.3077 147.639 13.3566C146.851 13.748 146.064 14.0905 145.129 14.433C144.244 14.7265 143.309 15.0201 142.226 15.2158C142.029 15.2647 142.079 15.5583 142.226 15.5583C144.588 15.1669 145.129 15.2158 145.129 18.3959C145.129 18.5916 145.129 18.7384 145.129 18.8852V33.416C145.08 35.7644 144.686 36.2048 142.374 36.2048C142.275 36.2048 142.275 36.4983 142.374 36.4983C143.702 36.4983 146.31 36.4983 146.999 36.4983C147.688 36.4983 150.099 36.4983 151.427 36.4983C151.526 36.4983 151.526 36.2048 151.427 36.2048C148.82 36.2048 148.524 35.6666 148.524 32.5354V23.3863C150.001 17.6621 153.002 15.8029 156.938 15.8029C157.332 15.8029 157.726 15.8518 158.119 15.9007V13.2588C153.494 13.2588 149.853 16.1943 148.475 22.946Z" fill="white"/>
<path d="M179.656 28.4746C177.491 32.0461 174.637 34.1499 170.503 34.1499C164.697 34.1499 160.121 29.7466 160.121 24.0713C160.121 23.4353 160.17 22.7992 160.22 22.2121L160.269 21.9186C160.269 21.7718 160.269 21.6739 160.318 21.5272C160.318 21.3315 160.417 20.8911 160.515 20.4508H177.441V20.304C177.441 20.1573 177.441 20.0594 177.441 20.0105V19.9126C177.294 18.1513 176.802 16.8303 176.113 15.8518C176.113 15.8518 176.113 15.8518 176.113 15.8029C175.818 15.3626 175.424 14.9712 174.981 14.5798C174.981 14.5798 174.981 14.5798 174.932 14.5798C174.735 14.3841 174.489 14.1884 174.194 14.0416C174.145 13.9927 174.046 13.9437 173.997 13.9437C173.899 13.8948 173.849 13.8459 173.8 13.797C172.767 13.3077 171.734 13.0631 170.996 12.9652C170.061 12.8184 168.535 12.9652 168.535 12.9652C162.926 13.5523 157.563 19.2766 157.563 25.7837C157.563 29.6488 159.088 32.8778 161.794 34.8349C163.566 36.1069 165.78 36.7919 168.338 36.7919C170.651 36.7919 172.718 36.058 174.538 34.8349C174.637 34.7859 174.735 34.6881 174.834 34.6392C176.949 33.1714 178.671 31.0187 180 28.7192L179.656 28.4746ZM160.909 19.2277C162.139 15.705 164.894 13.9437 168.289 13.9437C169.077 13.9437 169.815 14.0905 170.454 14.3351C170.553 14.3841 170.651 14.433 170.75 14.4819C170.799 14.5308 170.848 14.5308 170.897 14.5308C171.537 14.9222 172.226 15.4604 172.767 16.39V16.4389C173.308 17.3196 173.653 18.5427 173.702 20.1573H160.613C160.663 19.8637 160.761 19.5701 160.859 19.2766C160.859 19.2277 160.909 19.2277 160.909 19.2277Z" fill="white"/>
</svg>
